<svg width="40" height="44" viewBox="0 0 40 44" fill="none" xmlns="http://www.w3.org/2000/svg">
<g clip-path="url(#clip0)">
<g filter="url(#filter0_d)">
<path d="M38.8962 13.1656L21.4625 5.80078C20.5125 5.39945 19.4875 5.39945 18.5381 5.80078L1.10374 13.1656C-0.367507 13.787 -0.367507 16.4622 1.10374 17.0835L4.14312 18.3674C3.47624 19.5009 3.06624 20.8837 3.02562 22.3979C2.42374 22.8723 1.99999 23.7282 1.99999 24.75C1.99999 25.6764 2.35499 26.4559 2.86624 26.9543L1.27062 36.8268C1.13187 37.6853 1.60687 38.5 2.24624 38.5H5.75312C6.39312 38.5 6.86812 37.6853 6.72937 36.8268L5.13374 26.9543C5.64499 26.4559 5.99999 25.6764 5.99999 24.75C5.99999 23.7557 5.59562 22.9238 5.02124 22.4409C5.06874 21.1501 5.54874 20.0088 6.31437 19.2852L18.5375 24.4492C19.1037 24.6881 20.19 24.9863 21.4619 24.4492L38.8962 17.0844C40.3681 16.4622 40.3681 13.7878 38.8962 13.1656ZM22.0494 27.0781C20.2662 27.8309 18.7469 27.4149 17.95 27.0781L8.88624 23.2495L7.99999 33C7.99999 36.0379 13.3725 38.5 20 38.5C26.6275 38.5 32 36.0379 32 33L31.1137 23.2487L22.0494 27.0781Z" fill="#EDEDED"/>
</g>
</g>
<defs>
<filter id="filter0_d" x="-3.99969" y="5.49979" width="47.9998" height="41.0002" filterUnits="userSpaceOnUse" color-interpolation-filters="sRGB">
<feFlood flood-opacity="0" result="BackgroundImageFix"/>
<feColorMatrix in="SourceAlpha" type="matrix" values="0 0 0 0 0 0 0 0 0 0 0 0 0 0 0 0 0 0 127 0" result="hardAlpha"/>
<feOffset dy="4"/>
<feGaussianBlur stdDeviation="2"/>
<feColorMatrix type="matrix" values="0 0 0 0 0 0 0 0 0 0 0 0 0 0 0 0 0 0 0.25 0"/>
<feBlend mode="normal" in2="BackgroundImageFix" result="effect1_dropShadow"/>
<feBlend mode="normal" in="SourceGraphic" in2="effect1_dropShadow" result="shape"/>
</filter>
<clipPath id="clip0">
<rect width="40" height="44" fill="white"/>
</clipPath>
</defs>
</svg>
