<svg width="27" height="27" viewBox="0 0 27 27" fill="none" xmlns="http://www.w3.org/2000/svg">
<path d="M26.1374 24.5927L19.7114 17.9093C21.3636 15.9452 22.2689 13.4739 22.2689 10.9012C22.2689 4.89039 17.3785 0 11.3677 0C5.35682 0 0.466431 4.89039 0.466431 10.9012C0.466431 16.9121 5.35682 21.8025 11.3677 21.8025C13.6242 21.8025 15.7746 21.1219 17.6131 19.8298L24.088 26.564C24.3586 26.845 24.7226 27 25.1127 27C25.4819 27 25.8322 26.8592 26.0981 26.6033C26.6631 26.0597 26.6811 25.1582 26.1374 24.5927ZM11.3677 2.8438C15.8106 2.8438 19.4251 6.45827 19.4251 10.9012C19.4251 15.3442 15.8106 18.9587 11.3677 18.9587C6.9247 18.9587 3.31023 15.3442 3.31023 10.9012C3.31023 6.45827 6.9247 2.8438 11.3677 2.8438Z" fill="#EDEDED"/>
</svg>
