<svg width="31" height="34" viewBox="0 0 31 34" fill="none" xmlns="http://www.w3.org/2000/svg">
<path d="M15.5 19.125C20.3135 19.125 24.2188 14.8418 24.2188 9.5625C24.2188 4.2832 20.3135 0 15.5 0C10.6865 0 6.78125 4.2832 6.78125 9.5625C6.78125 14.8418 10.6865 19.125 15.5 19.125ZM23.25 21.25H19.9139C18.5697 21.9273 17.0742 22.3125 15.5 22.3125C13.9258 22.3125 12.4363 21.9273 11.0861 21.25H7.75C3.46934 21.25 0 25.0551 0 29.75V30.8125C0 32.5723 1.30176 34 2.90625 34H28.0938C29.6982 34 31 32.5723 31 30.8125V29.75C31 25.0551 27.5307 21.25 23.25 21.25Z" fill="#EDEDED"/>
</svg>
